<svg width="1920" height="404" viewBox="0 0 1920 404" fill="none" xmlns="http://www.w3.org/2000/svg">
<g clip-path="url(#clip0_51_35)">
<circle cx="222.5" cy="120.5" r="7.5" fill="#A1A2AD"/>
<circle cx="915.5" cy="66.5" r="7.5" fill="#A1A2AD"/>
<circle cx="1306.5" cy="130.5" r="7.5" fill="#A1A2AD"/>
<circle cx="1757.5" cy="346.5" r="7.5" fill="#A1A2AD"/>
<path d="M204.568 84.4V97H203.272V85.552H200.302V84.4H204.568ZM216.184 95.848V97H207.346V96.082L212.584 90.952C213.244 90.304 213.688 89.746 213.916 89.278C214.156 88.798 214.276 88.318 214.276 87.838C214.276 87.094 214.018 86.518 213.502 86.11C212.998 85.69 212.272 85.48 211.324 85.48C209.848 85.48 208.702 85.948 207.886 86.884L206.968 86.092C207.46 85.516 208.084 85.072 208.84 84.76C209.608 84.448 210.472 84.292 211.432 84.292C212.716 84.292 213.73 84.598 214.474 85.21C215.23 85.81 215.608 86.638 215.608 87.694C215.608 88.342 215.464 88.966 215.176 89.566C214.888 90.166 214.342 90.856 213.538 91.636L209.254 95.848H216.184ZM222.762 97.108C221.79 97.108 220.92 96.85 220.152 96.334C219.396 95.818 218.802 95.08 218.37 94.12C217.95 93.148 217.74 92.008 217.74 90.7C217.74 89.392 217.95 88.258 218.37 87.298C218.802 86.326 219.396 85.582 220.152 85.066C220.92 84.55 221.79 84.292 222.762 84.292C223.734 84.292 224.598 84.55 225.354 85.066C226.122 85.582 226.722 86.326 227.154 87.298C227.586 88.258 227.802 89.392 227.802 90.7C227.802 92.008 227.586 93.148 227.154 94.12C226.722 95.08 226.122 95.818 225.354 96.334C224.598 96.85 223.734 97.108 222.762 97.108ZM222.762 95.92C223.494 95.92 224.136 95.716 224.688 95.308C225.252 94.9 225.69 94.306 226.002 93.526C226.314 92.746 226.47 91.804 226.47 90.7C226.47 89.596 226.314 88.654 226.002 87.874C225.69 87.094 225.252 86.5 224.688 86.092C224.136 85.684 223.494 85.48 222.762 85.48C222.03 85.48 221.382 85.684 220.818 86.092C220.266 86.5 219.834 87.094 219.522 87.874C219.21 88.654 219.054 89.596 219.054 90.7C219.054 91.804 219.21 92.746 219.522 93.526C219.834 94.306 220.266 94.9 220.818 95.308C221.382 95.716 222.03 95.92 222.762 95.92ZM234.68 97.108C233.708 97.108 232.838 96.85 232.07 96.334C231.314 95.818 230.72 95.08 230.288 94.12C229.868 93.148 229.658 92.008 229.658 90.7C229.658 89.392 229.868 88.258 230.288 87.298C230.72 86.326 231.314 85.582 232.07 85.066C232.838 84.55 233.708 84.292 234.68 84.292C235.652 84.292 236.516 84.55 237.272 85.066C238.04 85.582 238.64 86.326 239.072 87.298C239.504 88.258 239.72 89.392 239.72 90.7C239.72 92.008 239.504 93.148 239.072 94.12C238.64 95.08 238.04 95.818 237.272 96.334C236.516 96.85 235.652 97.108 234.68 97.108ZM234.68 95.92C235.412 95.92 236.054 95.716 236.606 95.308C237.17 94.9 237.608 94.306 237.92 93.526C238.232 92.746 238.388 91.804 238.388 90.7C238.388 89.596 238.232 88.654 237.92 87.874C237.608 87.094 237.17 86.5 236.606 86.092C236.054 85.684 235.412 85.48 234.68 85.48C233.948 85.48 233.3 85.684 232.736 86.092C232.184 86.5 231.752 87.094 231.44 87.874C231.128 88.654 230.972 89.596 230.972 90.7C230.972 91.804 231.128 92.746 231.44 93.526C231.752 94.306 232.184 94.9 232.736 95.308C233.3 95.716 233.948 95.92 234.68 95.92ZM253.042 87.532V97H251.872V89.512L248.038 95.848H247.462L243.628 89.494V97H242.458V87.532H243.754L247.768 94.354L251.854 87.532H253.042Z" fill="#A1A2AD"/>
<path d="M899.816 42.848V44H890.978V43.082L896.216 37.952C896.876 37.304 897.32 36.746 897.548 36.278C897.788 35.798 897.908 35.318 897.908 34.838C897.908 34.094 897.65 33.518 897.134 33.11C896.63 32.69 895.904 32.48 894.956 32.48C893.48 32.48 892.334 32.948 891.518 33.884L890.6 33.092C891.092 32.516 891.716 32.072 892.472 31.76C893.24 31.448 894.104 31.292 895.064 31.292C896.348 31.292 897.362 31.598 898.106 32.21C898.862 32.81 899.24 33.638 899.24 34.694C899.24 35.342 899.096 35.966 898.808 36.566C898.52 37.166 897.974 37.856 897.17 38.636L892.886 42.848H899.816ZM905.727 36.8C907.047 36.872 908.049 37.232 908.733 37.88C909.429 38.516 909.777 39.35 909.777 40.382C909.777 41.102 909.603 41.744 909.255 42.308C908.907 42.86 908.391 43.298 907.707 43.622C907.023 43.946 906.189 44.108 905.205 44.108C904.293 44.108 903.429 43.964 902.613 43.676C901.809 43.376 901.161 42.98 900.669 42.488L901.299 41.462C901.719 41.894 902.277 42.248 902.973 42.524C903.669 42.788 904.413 42.92 905.205 42.92C906.237 42.92 907.035 42.698 907.599 42.254C908.163 41.798 908.445 41.174 908.445 40.382C908.445 39.602 908.163 38.99 907.599 38.546C907.035 38.102 906.183 37.88 905.043 37.88H904.143V36.926L907.635 32.552H901.191V31.4H909.291V32.318L905.727 36.8ZM916.625 44.108C915.653 44.108 914.783 43.85 914.015 43.334C913.259 42.818 912.665 42.08 912.233 41.12C911.813 40.148 911.603 39.008 911.603 37.7C911.603 36.392 911.813 35.258 912.233 34.298C912.665 33.326 913.259 32.582 914.015 32.066C914.783 31.55 915.653 31.292 916.625 31.292C917.597 31.292 918.461 31.55 919.217 32.066C919.985 32.582 920.585 33.326 921.017 34.298C921.449 35.258 921.665 36.392 921.665 37.7C921.665 39.008 921.449 40.148 921.017 41.12C920.585 42.08 919.985 42.818 919.217 43.334C918.461 43.85 917.597 44.108 916.625 44.108ZM916.625 42.92C917.357 42.92 917.999 42.716 918.551 42.308C919.115 41.9 919.553 41.306 919.865 40.526C920.177 39.746 920.333 38.804 920.333 37.7C920.333 36.596 920.177 35.654 919.865 34.874C919.553 34.094 919.115 33.5 918.551 33.092C917.999 32.684 917.357 32.48 916.625 32.48C915.893 32.48 915.245 32.684 914.681 33.092C914.129 33.5 913.697 34.094 913.385 34.874C913.073 35.654 912.917 36.596 912.917 37.7C912.917 38.804 913.073 39.746 913.385 40.526C913.697 41.306 914.129 41.9 914.681 42.308C915.245 42.716 915.893 42.92 916.625 42.92ZM928.543 44.108C927.571 44.108 926.701 43.85 925.933 43.334C925.177 42.818 924.583 42.08 924.151 41.12C923.731 40.148 923.521 39.008 923.521 37.7C923.521 36.392 923.731 35.258 924.151 34.298C924.583 33.326 925.177 32.582 925.933 32.066C926.701 31.55 927.571 31.292 928.543 31.292C929.515 31.292 930.379 31.55 931.135 32.066C931.903 32.582 932.503 33.326 932.935 34.298C933.367 35.258 933.583 36.392 933.583 37.7C933.583 39.008 933.367 40.148 932.935 41.12C932.503 42.08 931.903 42.818 931.135 43.334C930.379 43.85 929.515 44.108 928.543 44.108ZM928.543 42.92C929.275 42.92 929.917 42.716 930.469 42.308C931.033 41.9 931.471 41.306 931.783 40.526C932.095 39.746 932.251 38.804 932.251 37.7C932.251 36.596 932.095 35.654 931.783 34.874C931.471 34.094 931.033 33.5 930.469 33.092C929.917 32.684 929.275 32.48 928.543 32.48C927.811 32.48 927.163 32.684 926.599 33.092C926.047 33.5 925.615 34.094 925.303 34.874C924.991 35.654 924.835 36.596 924.835 37.7C924.835 38.804 924.991 39.746 925.303 40.526C925.615 41.306 926.047 41.9 926.599 42.308C927.163 42.716 927.811 42.92 928.543 42.92ZM946.905 34.532V44H945.735V36.512L941.901 42.848H941.325L937.491 36.494V44H936.321V34.532H937.617L941.631 41.354L945.717 34.532H946.905Z" fill="#A1A2AD"/>
<path d="M1286.66 100.8C1287.98 100.872 1288.98 101.232 1289.67 101.88C1290.36 102.516 1290.71 103.35 1290.71 104.382C1290.71 105.102 1290.54 105.744 1290.19 106.308C1289.84 106.86 1289.33 107.298 1288.64 107.622C1287.96 107.946 1287.12 108.108 1286.14 108.108C1285.23 108.108 1284.36 107.964 1283.55 107.676C1282.74 107.376 1282.1 106.98 1281.6 106.488L1282.23 105.462C1282.65 105.894 1283.21 106.248 1283.91 106.524C1284.6 106.788 1285.35 106.92 1286.14 106.92C1287.17 106.92 1287.97 106.698 1288.53 106.254C1289.1 105.798 1289.38 105.174 1289.38 104.382C1289.38 103.602 1289.1 102.99 1288.53 102.546C1287.97 102.102 1287.12 101.88 1285.98 101.88H1285.08V100.926L1288.57 96.552H1282.13V95.4H1290.23V96.318L1286.66 100.8ZM1303.25 104.688H1300.73V108H1299.43V104.688H1292.32V103.752L1299 95.4H1300.44L1294 103.536H1299.47V100.62H1300.73V103.536H1303.25V104.688ZM1309.46 108.108C1308.49 108.108 1307.62 107.85 1306.85 107.334C1306.09 106.818 1305.5 106.08 1305.07 105.12C1304.65 104.148 1304.44 103.008 1304.44 101.7C1304.44 100.392 1304.65 99.258 1305.07 98.298C1305.5 97.326 1306.09 96.582 1306.85 96.066C1307.62 95.55 1308.49 95.292 1309.46 95.292C1310.43 95.292 1311.3 95.55 1312.05 96.066C1312.82 96.582 1313.42 97.326 1313.85 98.298C1314.28 99.258 1314.5 100.392 1314.5 101.7C1314.5 103.008 1314.28 104.148 1313.85 105.12C1313.42 106.08 1312.82 106.818 1312.05 107.334C1311.3 107.85 1310.43 108.108 1309.46 108.108ZM1309.46 106.92C1310.19 106.92 1310.83 106.716 1311.39 106.308C1311.95 105.9 1312.39 105.306 1312.7 104.526C1313.01 103.746 1313.17 102.804 1313.17 101.7C1313.17 100.596 1313.01 99.654 1312.7 98.874C1312.39 98.094 1311.95 97.5 1311.39 97.092C1310.83 96.684 1310.19 96.48 1309.46 96.48C1308.73 96.48 1308.08 96.684 1307.52 97.092C1306.96 97.5 1306.53 98.094 1306.22 98.874C1305.91 99.654 1305.75 100.596 1305.75 101.7C1305.75 102.804 1305.91 103.746 1306.22 104.526C1306.53 105.306 1306.96 105.9 1307.52 106.308C1308.08 106.716 1308.73 106.92 1309.46 106.92ZM1321.38 108.108C1320.41 108.108 1319.54 107.85 1318.77 107.334C1318.01 106.818 1317.42 106.08 1316.99 105.12C1316.57 104.148 1316.36 103.008 1316.36 101.7C1316.36 100.392 1316.57 99.258 1316.99 98.298C1317.42 97.326 1318.01 96.582 1318.77 96.066C1319.54 95.55 1320.41 95.292 1321.38 95.292C1322.35 95.292 1323.21 95.55 1323.97 96.066C1324.74 96.582 1325.34 97.326 1325.77 98.298C1326.2 99.258 1326.42 100.392 1326.42 101.7C1326.42 103.008 1326.2 104.148 1325.77 105.12C1325.34 106.08 1324.74 106.818 1323.97 107.334C1323.21 107.85 1322.35 108.108 1321.38 108.108ZM1321.38 106.92C1322.11 106.92 1322.75 106.716 1323.3 106.308C1323.87 105.9 1324.31 105.306 1324.62 104.526C1324.93 103.746 1325.09 102.804 1325.09 101.7C1325.09 100.596 1324.93 99.654 1324.62 98.874C1324.31 98.094 1323.87 97.5 1323.3 97.092C1322.75 96.684 1322.11 96.48 1321.38 96.48C1320.65 96.48 1320 96.684 1319.43 97.092C1318.88 97.5 1318.45 98.094 1318.14 98.874C1317.83 99.654 1317.67 100.596 1317.67 101.7C1317.67 102.804 1317.83 103.746 1318.14 104.526C1318.45 105.306 1318.88 105.9 1319.43 106.308C1320 106.716 1320.65 106.92 1321.38 106.92ZM1339.74 98.532V108H1338.57V100.512L1334.74 106.848H1334.16L1330.33 100.494V108H1329.16V98.532H1330.45L1334.47 105.354L1338.55 98.532H1339.74Z" fill="#A1A2AD"/>
<path d="M1736.64 317.566C1738.46 317.566 1739.79 317.896 1740.62 318.556C1741.46 319.204 1741.88 320.116 1741.88 321.292C1741.88 322.024 1741.7 322.678 1741.35 323.254C1741.02 323.83 1740.51 324.286 1739.82 324.622C1739.14 324.946 1738.3 325.108 1737.3 325.108C1736.4 325.108 1735.55 324.964 1734.73 324.676C1733.93 324.376 1733.28 323.98 1732.79 323.488L1733.42 322.462C1733.84 322.894 1734.39 323.248 1735.07 323.524C1735.76 323.788 1736.49 323.92 1737.29 323.92C1738.33 323.92 1739.13 323.686 1739.7 323.218C1740.27 322.75 1740.56 322.126 1740.56 321.346C1740.56 320.482 1740.24 319.828 1739.59 319.384C1738.95 318.94 1737.87 318.718 1736.35 318.718H1733.67L1734.32 312.4H1741.21V313.552H1735.45L1735.02 317.566H1736.64ZM1748.74 317.458C1749.57 317.458 1750.3 317.614 1750.94 317.926C1751.58 318.238 1752.09 318.682 1752.45 319.258C1752.81 319.822 1752.99 320.482 1752.99 321.238C1752.99 322.006 1752.8 322.684 1752.43 323.272C1752.06 323.86 1751.54 324.316 1750.88 324.64C1750.23 324.952 1749.5 325.108 1748.69 325.108C1747.02 325.108 1745.74 324.562 1744.85 323.47C1743.96 322.366 1743.52 320.812 1743.52 318.808C1743.52 317.404 1743.76 316.216 1744.24 315.244C1744.72 314.272 1745.39 313.54 1746.26 313.048C1747.12 312.544 1748.13 312.292 1749.28 312.292C1750.53 312.292 1751.52 312.52 1752.27 312.976L1751.75 314.02C1751.15 313.624 1750.33 313.426 1749.3 313.426C1747.91 313.426 1746.81 313.87 1746.02 314.758C1745.23 315.634 1744.83 316.912 1744.83 318.592C1744.83 318.892 1744.85 319.234 1744.89 319.618C1745.2 318.934 1745.7 318.406 1746.38 318.034C1747.07 317.65 1747.85 317.458 1748.74 317.458ZM1748.63 324.01C1749.54 324.01 1750.28 323.764 1750.85 323.272C1751.42 322.768 1751.71 322.102 1751.71 321.274C1751.71 320.446 1751.42 319.786 1750.85 319.294C1750.28 318.802 1749.51 318.556 1748.54 318.556C1747.91 318.556 1747.34 318.676 1746.85 318.916C1746.37 319.156 1745.99 319.486 1745.72 319.906C1745.44 320.326 1745.3 320.794 1745.3 321.31C1745.3 321.79 1745.43 322.234 1745.68 322.642C1745.94 323.05 1746.33 323.38 1746.83 323.632C1747.34 323.884 1747.94 324.01 1748.63 324.01ZM1759.51 325.108C1758.54 325.108 1757.67 324.85 1756.9 324.334C1756.15 323.818 1755.55 323.08 1755.12 322.12C1754.7 321.148 1754.49 320.008 1754.49 318.7C1754.49 317.392 1754.7 316.258 1755.12 315.298C1755.55 314.326 1756.15 313.582 1756.9 313.066C1757.67 312.55 1758.54 312.292 1759.51 312.292C1760.48 312.292 1761.35 312.55 1762.1 313.066C1762.87 313.582 1763.47 314.326 1763.9 315.298C1764.34 316.258 1764.55 317.392 1764.55 318.7C1764.55 320.008 1764.34 321.148 1763.9 322.12C1763.47 323.08 1762.87 323.818 1762.1 324.334C1761.35 324.85 1760.48 325.108 1759.51 325.108ZM1759.51 323.92C1760.24 323.92 1760.89 323.716 1761.44 323.308C1762 322.9 1762.44 322.306 1762.75 321.526C1763.06 320.746 1763.22 319.804 1763.22 318.7C1763.22 317.596 1763.06 316.654 1762.75 315.874C1762.44 315.094 1762 314.5 1761.44 314.092C1760.89 313.684 1760.24 313.48 1759.51 313.48C1758.78 313.48 1758.13 313.684 1757.57 314.092C1757.02 314.5 1756.58 315.094 1756.27 315.874C1755.96 316.654 1755.8 317.596 1755.8 318.7C1755.8 319.804 1755.96 320.746 1756.27 321.526C1756.58 322.306 1757.02 322.9 1757.57 323.308C1758.13 323.716 1758.78 323.92 1759.51 323.92ZM1771.43 325.108C1770.46 325.108 1769.59 324.85 1768.82 324.334C1768.06 323.818 1767.47 323.08 1767.04 322.12C1766.62 321.148 1766.41 320.008 1766.41 318.7C1766.41 317.392 1766.62 316.258 1767.04 315.298C1767.47 314.326 1768.06 313.582 1768.82 313.066C1769.59 312.55 1770.46 312.292 1771.43 312.292C1772.4 312.292 1773.27 312.55 1774.02 313.066C1774.79 313.582 1775.39 314.326 1775.82 315.298C1776.25 316.258 1776.47 317.392 1776.47 318.7C1776.47 320.008 1776.25 321.148 1775.82 322.12C1775.39 323.08 1774.79 323.818 1774.02 324.334C1773.27 324.85 1772.4 325.108 1771.43 325.108ZM1771.43 323.92C1772.16 323.92 1772.8 323.716 1773.36 323.308C1773.92 322.9 1774.36 322.306 1774.67 321.526C1774.98 320.746 1775.14 319.804 1775.14 318.7C1775.14 317.596 1774.98 316.654 1774.67 315.874C1774.36 315.094 1773.92 314.5 1773.36 314.092C1772.8 313.684 1772.16 313.48 1771.43 313.48C1770.7 313.48 1770.05 313.684 1769.49 314.092C1768.93 314.5 1768.5 315.094 1768.19 315.874C1767.88 316.654 1767.72 317.596 1767.72 318.7C1767.72 319.804 1767.88 320.746 1768.19 321.526C1768.5 322.306 1768.93 322.9 1769.49 323.308C1770.05 323.716 1770.7 323.92 1771.43 323.92ZM1789.79 315.532V325H1788.62V317.512L1784.79 323.848H1784.21L1780.38 317.494V325H1779.21V315.532H1780.5L1784.52 322.354L1788.6 315.532H1789.79Z" fill="#A1A2AD"/>
<path d="M-5.20236 12.6761L247.217 132.447L648.79 206.348L911.408 66.191L1129.4 138.181L1302.78 129.899L1529.7 231.832L1760.45 349.054L1923.63 382.182" stroke="#A1A2AD" stroke-width="1.5" stroke-miterlimit="22.9256" stroke-dasharray="3 4.5"/>
</g>
<defs>
<clipPath id="clip0_51_35">
<rect width="1930" height="404" fill="white" transform="translate(-8)"/>
</clipPath>
</defs>
</svg>
